<?xml version="1.0" encoding="UTF-8"?>
<svg id="Layer_1" data-name="Layer 1" xmlns="http://www.w3.org/2000/svg" viewBox="0 0 1944 718">
  <defs>
    <style>
      .cls-1, .cls-2, .cls-3, .cls-4 {
        stroke-width: 0px;
      }

      .cls-2 {
        fill: #fff;
      }

      .cls-3 {
        fill: #ea1920;
      }

      .cls-4 {
        fill: #020000;
      }
    </style>
  </defs>
  <g>
    <g>
      <circle class="cls-3" cx="1568.5" cy="359.4" r="187.46"/>
      <path class="cls-1" d="M1568.5,177.47c48.59,0,94.28,18.92,128.64,53.29,34.36,34.36,53.29,80.05,53.29,128.64s-18.92,94.28-53.29,128.64c-34.36,34.36-80.05,53.29-128.64,53.29s-94.28-18.92-128.64-53.29c-34.36-34.36-53.29-80.05-53.29-128.64s18.92-94.28,53.29-128.64c34.36-34.36,80.05-53.29,128.64-53.29M1568.5,166.4c-106.59,0-193,86.41-193,193s86.41,193,193,193,193-86.41,193-193-86.41-193-193-193h0Z"/>
    </g>
    <g>
      <path class="cls-4" d="M1476.39,452.05v-1.96c1.03-3.72,3.66-5.7,5.87-8.02,2.32-2.43,4.64-4.85,6.85-7.39,2.48-2.85,4.96-5.73,7.19-8.78,1.56-2.14,3.14-4.28,4.65-6.47,1.51-2.18,2.97-4.41,4.47-6.6,2.76-4,5.06-8.25,7.12-12.64.43-.91,1.35-1.67.87-3.03-1.77.84-3.67.48-5.53.52-1.87.04-3.78.26-5.61-.04-4.48-.73-8.65-2.34-11.43-6.18-1.04-1.44-1.68-3.22-2.24-4.93-.62-1.89-.69-3.91-.53-5.91.04-.45.35-.87.54-1.33,1.64,0,3.16.06,4.68-.01,2.59-.12,5.09-.75,7.62-1.29,2.26-.48,4.46-1.18,6.68-1.76,2.08-.54,4.23-.86,6.23-1.6,1.73-.64,3.54-.86,5.27-1.45.98-.33,2.22-.18,2.99-.74.98-.69,2.27.32,3.01-.81.03-.04.16-.02.25,0,2.35.37,4.61-.79,6.93-.49,3.87.5,7.84.73,11.25,3.03,1.18.8,2.43,1.5,3.75,2.31,0,1.35.13,2.81-.04,4.22-.17,1.41-.54,2.8-1.14,4.12-1.13,2.5-2.84,4.63-4.32,6.9-.95,1.45-1.76,3.01-2.51,4.58-.23.47-.3,1.25-.07,1.68.95,1.73,1.49,3.65,2.65,5.3,2.81,4.01,6.34,7.33,9.77,10.76.08.08.33.01.61.01.15-2.02.83-3.96.69-6.06-.15-2.2-.09-4.43-.02-6.64.11-3.36-.9-6.65-.52-10.01-1.04-2.86-.38-5.82-.47-8.73-.04-1.45.37-2.91.62-4.69.19-.33.55-.95.82-1.42.22-.17.27-.26.34-.26,1.29-.18,2.58-.44,3.87-.49,1.64-.07,3.26.04,4.91.41,1.48.33,2.99.82,4.43.96,2.36.23,4.53,1.44,6.96,1.2.59-.06,1.21.41,1.83.46,2.31.18,4.51-.4,6.68-1.07.65-1.8,1.17-3.55,1.16-5.46,0-2.64-.52-5.18-.93-7.77-.5-3.19-1.86-6.15-2.16-9.36-1.01-.94-.08-2.31-.68-3.29-.69-1.13-.11-2.31-.37-3.36.4-.6.69-1.19,1.12-1.67,2.17-2.43,4.42-3.06,7.83-2.27.79.18,1.59.1,2.42.28,2.57.57,4.65,2.04,6.77,3.39.92.58,1.64,1.65,2.16,2.65,1.08,2.03,1.78,4.19,2.26,6.48.61,2.93.24,5.84.45,8.75.1,1.38.4,2.75.48,4.13.09,1.43.02,2.88.02,4.54,1.18-.22,2.34.37,3.37-.54.09-.08.33,0,.5-.01,4.52-.19,9.03-.79,13.57-.5,1.21.08,2.43.54,3.61.44,1.38-.12,2.59.41,3.87.63,1.14.19,2.42.15,3.42.96,3.65.26,6.54,2.34,9.52,4.12,3.21,1.92,6.52,6.53,7.56,10.25.56,2.02,1.3,4.04,1.06,6.22-.05.46.19.94.25,1.42.1.9.5,1.98.16,2.67-.46.91-.36,1.76-.42,2.64-.07,1.08.22,2.36-.25,3.21-.56,1.01.35,2.27-.78,3.01.02,3.53-1.51,6.7-2.64,9.9-1.23,3.47-2.65,6.96-4.95,9.96-.42.55-.51,1.36-.94,1.9-2.31,2.89-4.28,6.05-7,8.61-2.09,1.97-4.47,3.54-6.86,5.06-1.29.82-2.93,1.1-4.58,1.68-.26-2.66,1.56-4.96.82-7.56-.32-.62-.68-1.33-1.09-2.13-.98-.14-1.82-.9-2.94-1.2-2.74-.74-5.49-.3-8.23-.43-1.26-.06-2.53-.01-3.71-.01-.31.33-.54.57-.65.68.15,1.01.44,1.89.37,2.75-.09,1.12.33,2.08.55,3.11.2.95-.44,2.02.45,2.89.13.13.04.48.06.73.17,1.8.2,3.63.54,5.4.47,2.4,1.08,4.77.99,7.25,1.15,1.5.25,3.33.84,5.01.56,1.59-.1,3.57.25,5.28.41,1.99.29,3.96.48,5.93.17,1.79-.7,3.43-.52,5.15.19,1.7-.22,3.37-.64,4.87-.86,3.02-1.88,6.06-4.06,8.53-2.61,2.96-4.59,4.38-8.13,5.56-1.89.63-3.83.91-6.03.66-.65-1.18-1.46-2.46-2.07-3.83-.48-1.07-.64-2.29-1.07-3.39-.41-1.04-.55-2.14-.91-3.2-.48-1.44-.56-3.06-.57-4.61,0-1.92-.75-3.72-.58-5.67.16-1.95.05-3.92.03-5.87-.02-3.77.87-7.5.51-11.29.88-2.26.13-4.67.56-6.93.98-5.21.08-10.44.55-15.66-1.37-1.18-2.92-1.69-4.64-1.85-.79-.07-1.6.26-2.39-.44-.38-.34-1.54-.33-1.94,0-.72.6-1.42.36-2.14.45-3.7.44-6.82,1.93-8.72,5.26-.53.93-.58,2.14-.87,3.28-4.08.94-7.7-2.42-9-6.03-.92-2.55-1.48-5.21-2-7.85-.34-1.73-1.14-3.36-1.13-5.17,0-.18-.34-.36-.69-.71-1.73-.26-3.41.73-5.16,1.13-1.4.32-2.73.87-4.21.93-.79.03-1.55.38-2.34.47-1.99.25-3.82-.47-5.89-1.09.19,1.91-.36,3.64-.63,5.41-.79,5.31-.27,10.6-.39,15.9-.12,5.28-.12,10.56.02,15.84.05,2.02-.6,3.93-.56,5.92.04,1.89-.72,3.65-.94,5.46-.29,2.45-1.08,4.67-2.15,6.8-1.4,2.77-3.39,4.99-6.57,5.79-1.88.48-3.76.39-5.65.05-1.66-.3-3.1-1.14-4.63-1.78-2.53-1.06-4-3.19-4.98-5.44-.9-2.07-1.41-4.37-1.77-6.71-.36-2.35-.26-4.65-.35-6.96-.09-2.38-.25-4.8.07-7.14.18-1.38.16-2.81.5-4.13.34-1.31.01-2.79.54-3.84.67-1.33.09-2.7.82-4.03.62-1.13.22-2.77.65-4.07.87-2.66.83-5.52,1.94-8.13.36-.83.07-1.89.51-2.85.38-.83.32-1.85.47-2.93-1.56.11-2.57,1.24-3.68,2.04-1.54,1.11-2.87,2.51-4.33,3.75-4.47,3.79-8.93,7.56-13.97,10.61-1.84,1.11-3.58,2.4-5.54,3.29-1.5.68-3.05,1.3-4.64,1.74-1.39.38-2.86.47-4.42.71ZM1604.36,422.24c4.14,0,8.12.22,12.06-.09,2.14-.17,4.44-.79,5.88-2.8q-.02-1.89-1.07-3.74v-2.9c-.98-.44-1.93-.82-2.83-1.29-1-.52-2.03-1.08-3.17-.9-1.13.17-2.06-.51-3.1-.53-3.03-.04-6.07-.01-9.3-.01.45,4.15,2.11,8.01,1.52,12.27ZM1568.7,402.86c1.73-.15,3.23-.11,4.8-.44,1.87-.4,3.69-.9,5.52-1.46,1.14-.35,2.35-.59,3.53-.65,1.08-.05,2.08-.19,2.94-.76.28-1.79-.29-3.44-1.01-4.93-.84-1.74-2.53-2.7-4.51-3.5-4.09-.25-8.37-.14-12.28,2.31,0,.51-.25,1.34.05,1.65.97,1.02.27,2.34.86,3.5.55,1.08.12,2.65.12,4.3ZM1619.21,390.26c-2.35-1.23-4.91-1.61-7.45-1.7-2.64-.09-5.29.29-7.93.45-.64.04-1.29,0-1.88,0v9.2c3.37,0,6.66-.06,9.96.02,2.64.06,5.08-.49,7.3-1.85v-6.13ZM1586.15,423.36c-.27-3.53-1.36-6.59-1.16-9.81-1.12,0-2.18-.28-2.96.07-1.14.51-2.33.16-3.37.51-1.14.37-2.23.43-3.38.46-.31,0-.66.06-.92.22-1.15.68-2.19.25-3.37-.32-.24.29-.5.61-.8.98.34,2.93-.73,6.11,1.2,8.82,1.77,0,3.38.01,5,0,1.64-.02,3.26.02,4.9-.45,1.46-.41,3.06-.32,4.86-.47Z"/>
      <path class="cls-4" d="M1547.65,346.33c.36,1.9,1.25,3.58,2.71,4.53,2.23,1.45,3.64,3.45,4.91,5.55.25,1.43.48,2.78.76,4.37-.32.26-.84.5-1.09.9-1.71,2.66-3.28,3.41-6.06,4.42-2.71.99-4.92-.03-7.2-.88-2.93-1.09-5.37-3.11-7.94-4.85-1.94-1.31-3.7-2.92-5.75-4.02-1.98-1.06-4.08-1.4-6.52-.71-2.67.76-5.26,1.75-7.93,2.44-1.24.32-2.44.95-3.77.75-.73-.11-1.24.28-1.84.52-.22.09-.56.11-.75,0-1.68-.96-3.59-.15-5.32-.71-1.06-.34-2.19-.46-3.23-.83-3.19-1.11-6.27-2.59-8.61-5.02-2.56-2.65-4.5-5.81-5.54-9.43-.15-.53-.43-1.04-.49-1.58-.08-.74-.02-1.5-.02-2.25,1.66-.22,3.19-.5,4.73-.6,1.52-.1,3.14-.32,4.58.04,3.25.81,6.51.32,9.76.41,1.36.04,2.74-.36,4.23-.58.78-.82.73-1.96.71-3.12-.02-1.62.02-3.24-.01-4.85-.02-1.05.12-2.09-.45-3.14-.45-.81.41-2.02-.55-2.83.29-2.36-1.09-4.33-1.6-6.5-.48-2.05-1.44-3.99-2.19-5.98-.89-2.36-1.75-4.73-2.61-7.1-.3-.82.28-1.93-.76-2.49-.21-1.87-.41-3.74-.54-4.93.59-1.93,1.76-1.23,2.57-1.56,3.24-1.33,6.67-1.23,9.88-.23,2.63.81,4.88,2.57,6.48,4.99,2.25,3.42,3.75,7.13,4.6,11.13.6,2.84,1.37,5.63,1.62,8.56.11,1.27.05,2.71.5,3.85.53,1.34.02,2.72.49,3.88.58,1.43.25,2.91.56,4.52,2.89-1.53,4.54-3.8,5.48-6.6.79-2.36,1.31-4.77,1.68-7.26.35-2.35.26-4.65.34-6.96.03-1.03-.29-2.07-.48-3.11-.19-1.03.48-2.17-.48-3.14-.21-.22-.04-.82-.03-1.25.04-1.64-.63-3.16-.86-4.74-.26-1.84-.73-3.61-1.19-5.4-.49-1.91-1.03-3.81-1.54-5.71-3.59,0-6.99-.04-10.39.01-3.54.05-6.79-.99-10.04-2.26-1.43-.56-2.76-1.31-3.95-2.13-1.66-1.13-3.18-2.64-4.32-4.3-1.33-1.93-2.37-4.1-2.93-6.43-.17-.7-.4-1.38-.49-2.09-.08-.66-.02-1.35-.02-2.19,1.32.17,2.75.01,3.79.58,1.03.56,2.06.03,2.87.47.88.48,1.77.28,2.62.49,3.06.74,6.16.34,9.23.52,1.03.06,2.02.74,3.11.47,3.64-.91,7.37-.13,11.01-.59,1.98-.25,3.99-.14,5.91-.51,1.48-.29,2.98-.15,4.38-.5,1.39-.35,2.82-.16,4.13-.51,1.48-.39,3.01-.12,4.38-.53,1.41-.42,2.86-.07,4.12-.51,1.33-.46,2.6-.31,3.9-.45.96-.1,1.9-.33,2.85-.5.95-.17,2.03.41,2.86-.5.08-.08.33,0,.5-.01,2.82-.17,5.65-.3,8.46-.53,1.28-.11,2.55-.42,3.92-.66.26-1.16.07-2.34-.6-3.48-1.29-2.41-3.73-2.68-6.17-3.01-2.53-.34-4.94.69-7.45.52-.94.73-2.15.22-3.08.59-.98.39-1.95.24-2.87.47-2.14.53-4.33.68-6.46,1.09-3.03.59-6,.25-9,.39-2.12.1-4.27.2-6.38-.02-3.89-.41-7.7-1.12-11.28-2.93-1.78-.9-3.11-2.3-4.69-3.39-1.02-.71-1.56-2.18-2.18-3.38-.46-.9-.72-1.91-1.04-2.89-.19-.6-.32-1.23-.48-1.87.76-.84,1.8-.8,2.86-.86.96-.05,1.9-.36,2.85-.47.97-.11,2,.22,2.86-.51.1-.08.33-.02.5-.01,3.94.12,7.83-.69,11.78-.57,3.58.11,7.17-.35,10.76-.43,3.57-.09,7.17.23,10.71-.12,1.98-.19,3.96-.21,5.92-.46,2.67-.33,5.32-.77,8-1.01.6-.05,1.17-.45,1.92-.76-.29-1.81.18-3.71-.44-5.74-1.17-3.83-3.56-5.98-7.37-6.77-.14-.03-.24-.19-.43-.34,1.33-3.33,3.73-5.72,6.87-7.29,2.78-1.38,5.66-2.59,8.88-2.61.95,0,1.91-.51,2.85-.45,2.89.2,5.8.44,8.56,1.49.22.08.5.01.68.01,2.05,1.67,2.7,3.95,3.41,6.32,1.23,4.08.94,8.23.94,12.37,0,.95-.35,1.9-.48,2.86-.13.96.31,2.02-.52,2.85.27,1.6-.36,3.09-.5,4.64-.23,2.51-1.15,4.93-1.03,7.5-1.01.9-.32,2.08-.51,3.11-.18,1.03-.35,2.07-.51,3.11-.02.16.03.33.05.49,2.32,1.3,4.79,1.85,7.45,1.77,1.11-.03,2.23.38,3.36.46,1.18.09,2.45-.24,3.56.07,2.43.68,5.22.69,6.88,3.23.29,2.09.85,4.26.66,6.52-.16,1.86-.92,3.55-1.62,5.21-.33.8-1.42,1.28-2.08,1.83-1.27.1-2.38-.01-3.53.45-.69.28-1.82.5-2.62-.29-.1-.1-.3-.13-.45-.13-4.01,0-7.98-1-12.1-.38-1.2,2.48-.28,5.2-.64,7.81,1.13.86,2.32,1.26,3.66,1.26,2.97-.01,5.95,0,8.92,0,.79.58,1.58,1.16,2.28,1.68,0,1.11-.05,2.05.01,2.98.14,2.04-.77,3.8-1.74,5.4-.83,1.37-2.4,2.22-3.95,2.67-1.92.56-3.83,1.35-6.22.99.45,1.16.81,2.08,1.17,3,1.03,2.64,2.1,5.26,3.12,7.91.93,2.42,2.37,4.63,3.51,6.98,1.36,2.79,2.84,5.48,4.57,8.08,2.17,3.26,4.51,6.38,7.51,8.86,2.82,2.34,5.84,4.5,9.32,5.8,2.74,1.03,5.5,1.99,8.44,2.47,1.56.25,3.08.42,4.75.41.55-2.33-.44-4.44-1.1-6.55-.96-3.1-2.75-5.84-4.11-8.77-.56-1.21-1.09-2.45-1.63-3.67-.55-1.24-.81-2.59-1.1-3.87-.37-1.61-.09-3.37-.09-4.88.33-.4.55-.65.79-.94.55.22,1.18.3,1.54.66,2.66,2.62,5.27,5.29,7.86,7.97.67.7,1.22,1.52,1.87,2.24,1.91,2.11,3.95,4.11,5.75,6.32,3.44,4.23,7.01,8.38,9.91,13.01,1.09,1.73,2.01,3.58,2.91,5.43.87,1.79,1.27,3.73,1.98,5.57.14.37.05.84.05,1.26,0,1.45-.05,2.9.01,4.34.11,2.5-.59,4.77-1.78,6.93-.15.27-.24.58-.43,1.03-3.48,0-7.06.27-10.58-.08-3.32-.33-6.68-.94-9.86-2.04-1.24-.43-2.55-.71-3.79-1.34-1.12-.58-2.45-1.05-3.72-1.47-1.26-.42-2.45-1.07-3.62-1.73-3.14-1.76-6.17-3.7-9.08-5.83-7.28-5.33-13.41-11.91-19.76-18.25-3.86-3.85-7.7-7.71-11.75-11.76-1.18.18-2.57.24-3.86.61-3.32.97-6.6,2.1-9.74,3.55-2.57,1.19-5.14,2.39-7.71,3.57-1.14.53-2.28,1.06-3.45,1.52-1.1.43-2.3.64-3.33,1.19-1.13.6-2.39.78-3.55,1.3-1.13.51-2.55.38-3.84.6-.94.16-1.86.44-3.1.75ZM1544.57,285.77c1.03,4.83,3.13,9.15,3.84,14.02,8.84-2.11,17.54-3.92,26.58-5.5-1.14-2.58-.54-5.25-.69-7.89-.06-1.07.13-2.15-.13-3.19-1.51,0-2.87,0-4.23,0-1.4,0-2.75.07-4.14.45-1.23.34-2.57.26-3.87.46-2.24.35-4.47.72-6.71,1.08-2.53.4-5.12.41-7.69.55-.91.05-1.83,0-2.98,0ZM1576.21,309.28c-.91,0-1.86-.26-2.58.05-2.61,1.12-5.43,1.26-8.13,1.91-2.24.54-4.53.97-6.74,1.64-3.26.99-6.36,2.3-8.64,5.02-1.65,1.96-2.39,4.29-2.83,6.74-.08.47.32,1.03.4,1.29,1.93.27,3.55.58,5.17.71,1.44.11,3.11.47,4.28-.1,1.34-.65,2.88.24,3.97-.9,2.15.06,4-.98,5.93-1.7,2.74-1.02,5.35-2.33,7.82-3.92,1.14-.74,2.27-1.49,3.47-2.28.29-3.02-.32-5.87-2.14-8.45Z"/>
      <path class="cls-4" d="M1622.3,292.75c0-2.05-.06-3.92.02-5.79.1-2.4.08-4.85.58-7.17.32-1.49-.02-3.09.52-4.36.62-1.45,0-2.87.46-4.15.68-1.89.39-3.78.46-5.67.12-2.96-.78-5.74-1.46-8.57-.3-1.26-1.19-2.05-1.65-3.16-.41-.99-1.28-1.79-2.16-2.95,1.96.3,3.71-.37,5.34.6,2.79-.01,5.26,1.16,7.84,1.97,2.92.92,5.44,2.5,8.04,4.01,2.36,1.37,3.84,3.57,5.47,5.62,1.38,1.74,2.45,3.71,3.32,5.76,1.02,2.41,1.8,4.87,2.41,7.44.55,2.35.49,4.66.36,6.95-.22,3.79-1.73,6.95-5.1,9.18-2.43,1.61-5.01,2.74-7.78,3.39-1.98.46-4.11.78-6.1.55-1.8-.21-3.71-.31-5.44-.96-1.62-.61-3.2-1.39-4.57-2.51-.11-.09-.3-.1-.56-.18Z"/>
    </g>
  </g>
  <g>
    <g>
      <path class="cls-2" d="M177.16,288.14v-96.51h27.51c8.79,0,15.41,2.14,19.85,6.43,4.44,4.29,6.66,10.72,6.66,19.29,0,4.51-1.13,8.48-3.38,11.93-2.25,3.45-5.3,6.12-9.15,8.02,4.42,1.33,7.92,4.04,10.51,8.15,2.58,4.11,3.88,9.06,3.88,14.85,0,8.66-2.38,15.47-7.12,20.42-4.75,4.95-11.52,7.42-20.32,7.42h-28.44ZM189.29,232.79h15.58c4.2,0,7.59-1.42,10.17-4.25s3.88-6.6,3.88-11.29c0-5.31-1.17-9.18-3.51-11.59-2.34-2.41-5.92-3.62-10.74-3.62h-15.38v30.76ZM189.29,243v34.73h16.57c4.6,0,8.24-1.51,10.94-4.54,2.7-3.03,4.04-7.28,4.04-12.76,0-11.62-4.9-17.43-14.71-17.43h-16.84Z"/>
      <path class="cls-2" d="M307.51,191.63v68.61c-.09,9.15-2.74,16.31-7.95,21.48-5.21,5.17-12.48,7.75-21.81,7.75s-16.84-2.53-21.87-7.59c-5.04-5.06-7.6-12.27-7.69-21.64v-68.61h12.06v68.09c0,6.49,1.38,11.34,4.14,14.54s7.21,4.8,13.36,4.8,10.66-1.6,13.42-4.8c2.76-3.2,4.14-8.05,4.14-14.54v-68.09h12.2Z"/>
      <path class="cls-2" d="M358.26,191.63h12.2v68.34c0,9.24-2.35,16.46-7.06,21.68-4.71,5.21-11.04,7.82-18.99,7.82s-14.54-2.47-19.09-7.42c-4.55-4.95-6.83-11.8-6.83-20.55h12.13c0,5.52,1.21,9.83,3.65,12.92,2.43,3.09,5.81,4.64,10.14,4.64s7.56-1.68,10.08-5.04c2.52-3.36,3.78-8.06,3.78-14.12v-68.27Z"/>
      <path class="cls-2" d="M402.04,288.14h-12.13v-96.51h12.13v96.51Z"/>
      <path class="cls-2" d="M485.14,288.14h-12.2l-38.64-74.37v74.37h-12.2v-96.51h12.2l38.78,74.7v-74.7h12.06v96.51Z"/>
      <path class="cls-2" d="M526.54,243.66l-9.48,11.47v33.01h-12.13v-96.51h12.13v46.6l7.95-10.54,25.98-36.06h14.58l-31.35,42.49,33.81,54.02h-14.52l-26.98-44.48Z"/>
      <path class="cls-2" d="M622.69,262.88h-32.61l-7.49,25.25h-12.46l31.09-96.51h10.41l31.15,96.51h-12.46l-7.62-25.25ZM593.26,252.48h26.32l-13.19-43.88-13.12,43.88Z"/>
      <path class="cls-2" d="M717.71,288.14h-12.2l-38.64-74.37v74.37h-12.2v-96.51h12.2l38.78,74.7v-74.7h12.06v96.51Z"/>
      <path class="cls-2" d="M830.4,288.14h-12.2l-38.64-74.37v74.37h-12.2v-96.51h12.2l38.78,74.7v-74.7h12.06v96.51Z"/>
      <path class="cls-2" d="M862.85,288.14h-12.13v-96.51h12.13v96.51Z"/>
      <path class="cls-2" d="M945.95,288.14h-12.2l-38.64-74.37v74.37h-12.2v-96.51h12.2l38.78,74.7v-74.7h12.06v96.51Z"/>
      <path class="cls-2" d="M999.01,191.63h12.2v68.34c0,9.24-2.35,16.46-7.06,21.68-4.71,5.21-11.04,7.82-18.99,7.82s-14.54-2.47-19.09-7.42c-4.55-4.95-6.83-11.8-6.83-20.55h12.13c0,5.52,1.21,9.83,3.65,12.92,2.43,3.09,5.81,4.64,10.14,4.64s7.56-1.68,10.08-5.04c2.52-3.36,3.78-8.06,3.78-14.12v-68.27Z"/>
      <path class="cls-2" d="M1087.67,191.63v68.61c-.09,9.15-2.74,16.31-7.95,21.48-5.21,5.17-12.48,7.75-21.81,7.75s-16.84-2.53-21.87-7.59c-5.04-5.06-7.6-12.27-7.69-21.64v-68.61h12.06v68.09c0,6.49,1.38,11.34,4.14,14.54s7.21,4.8,13.36,4.8,10.66-1.6,13.42-4.8c2.76-3.2,4.14-8.05,4.14-14.54v-68.09h12.2Z"/>
      <path class="cls-2" d="M1161.55,202.03h-25.39v86.1h-12.13v-86.1h-25.32v-10.41h62.84v10.41Z"/>
      <path class="cls-2" d="M1215.68,263.74c0-4.82-1.3-8.51-3.91-11.07-2.61-2.56-7.31-5.06-14.12-7.49-6.81-2.43-12.01-4.98-15.61-7.66-3.6-2.67-6.3-5.72-8.09-9.15-1.79-3.42-2.68-7.35-2.68-11.77,0-7.64,2.55-13.94,7.66-18.89,5.1-4.95,11.79-7.42,20.05-7.42,5.66,0,10.69,1.26,15.11,3.79s7.82,6.04,10.21,10.54c2.39,4.5,3.58,9.45,3.58,14.84h-12.2c0-5.97-1.44-10.58-4.31-13.85-2.87-3.27-7-4.91-12.39-4.91-4.91,0-8.71,1.37-11.4,4.12-2.7,2.74-4.04,6.6-4.04,11.55,0,4.07,1.46,7.48,4.37,10.23,2.92,2.74,7.42,5.2,13.52,7.37,9.5,3.14,16.29,7.01,20.38,11.61,4.09,4.6,6.13,10.61,6.13,18.03,0,7.82-2.54,14.08-7.62,18.79-5.08,4.71-12,7.06-20.75,7.06-5.61,0-10.79-1.23-15.54-3.68-4.75-2.45-8.48-5.9-11.2-10.34-2.72-4.44-4.08-9.53-4.08-15.28h12.2c0,5.97,1.67,10.61,5,13.92,3.34,3.31,7.88,4.97,13.62,4.97,5.35,0,9.37-1.37,12.06-4.11,2.69-2.74,4.04-6.47,4.04-11.2Z"/>
      <path class="cls-2" d="M1300.16,191.63v68.61c-.09,9.15-2.74,16.31-7.95,21.48-5.21,5.17-12.48,7.75-21.81,7.75s-16.84-2.53-21.87-7.59c-5.04-5.06-7.6-12.27-7.69-21.64v-68.61h12.06v68.09c0,6.49,1.38,11.34,4.14,14.54s7.21,4.8,13.36,4.8,10.66-1.6,13.42-4.8c2.76-3.2,4.14-8.05,4.14-14.54v-68.09h12.2Z"/>
      <path class="cls-2" d="M498.09,438.08h-12.2l-38.64-74.37v74.37h-12.2v-96.51h12.2l38.78,74.7v-74.7h12.06v96.51Z"/>
      <path class="cls-2" d="M564.08,412.83h-32.61l-7.49,25.25h-12.46l31.09-96.51h10.41l31.15,96.51h-12.46l-7.62-25.25ZM534.65,402.42h26.32l-13.19-43.88-13.12,43.88Z"/>
      <path class="cls-2" d="M643.93,351.98h-25.39v86.1h-12.13v-86.1h-25.32v-10.41h62.84v10.41Z"/>
      <path class="cls-2" d="M696.73,412.83h-32.61l-7.49,25.25h-12.46l31.09-96.51h10.41l31.15,96.51h-12.46l-7.62-25.25ZM667.3,402.42h26.32l-13.19-43.88-13.12,43.88Z"/>
      <path class="cls-2" d="M740.91,427.68h37.85v10.41h-50.04v-96.51h12.2v86.1Z"/>
      <path class="cls-2" d="M804.65,438.08h-12.13v-96.51h12.13v96.51Z"/>
      <path class="cls-2" d="M870.9,412.83h-32.61l-7.49,25.25h-12.46l31.09-96.51h10.41l31.15,96.51h-12.46l-7.62-25.25ZM841.47,402.42h26.32l-13.19-43.88-13.12,43.88Z"/>
      <path class="cls-2" d="M901.3,343.63l-1.39,24.39h-8.55l.07-31.75h9.88v7.36Z"/>
      <path class="cls-2" d="M959.53,413.69c0-4.82-1.3-8.51-3.91-11.07-2.61-2.56-7.31-5.06-14.12-7.49-6.81-2.43-12.01-4.98-15.61-7.66-3.6-2.67-6.3-5.72-8.09-9.15-1.79-3.42-2.68-7.35-2.68-11.77,0-7.64,2.55-13.94,7.66-18.89,5.1-4.95,11.79-7.42,20.05-7.42,5.66,0,10.69,1.26,15.11,3.79,4.42,2.52,7.82,6.04,10.21,10.54s3.58,9.45,3.58,14.84h-12.2c0-5.97-1.44-10.58-4.31-13.85-2.87-3.27-7-4.91-12.39-4.91-4.91,0-8.71,1.37-11.4,4.12-2.7,2.75-4.04,6.6-4.04,11.55,0,4.07,1.46,7.48,4.37,10.23,2.92,2.75,7.42,5.2,13.52,7.37,9.5,3.14,16.29,7.01,20.38,11.61,4.09,4.6,6.13,10.61,6.13,18.03,0,7.82-2.54,14.09-7.62,18.79s-12,7.06-20.75,7.06c-5.61,0-10.79-1.23-15.54-3.68-4.75-2.45-8.48-5.9-11.2-10.34s-4.08-9.53-4.08-15.28h12.2c0,5.96,1.67,10.61,5,13.92,3.34,3.31,7.88,4.97,13.62,4.97,5.35,0,9.37-1.37,12.06-4.11,2.69-2.74,4.04-6.47,4.04-11.2Z"/>
      <path class="cls-2" d="M1016.35,438.08v-96.51h23c11.27,0,20.02,3.52,26.25,10.57,6.23,7.05,9.35,16.96,9.35,29.73v16.17c0,12.77-3.16,22.64-9.48,29.6s-15.49,10.44-27.51,10.44h-21.61ZM1028.48,351.98v75.7h9.74c8.53,0,14.76-2.44,18.69-7.33,3.93-4.89,5.94-12.13,6.03-21.73v-17.12c0-10.17-1.96-17.64-5.87-22.39-3.91-4.75-9.82-7.13-17.73-7.13h-10.87Z"/>
      <path class="cls-2" d="M1155.38,398.31c0,13.17-2.81,23.31-8.42,30.42-5.61,7.12-13.59,10.67-23.93,10.67s-17.8-3.46-23.56-10.37c-5.77-6.92-8.76-16.69-8.98-29.33v-18.16c0-12.9,2.85-23.01,8.55-30.33,5.7-7.31,13.66-10.97,23.86-10.97s18.08,3.5,23.76,10.51c5.68,7,8.58,17,8.72,29.99v17.57ZM1143.25,381.41c0-10.21-1.67-17.8-5-22.77-3.34-4.97-8.45-7.46-15.34-7.46s-11.72,2.52-15.15,7.56c-3.42,5.04-5.16,12.46-5.2,22.27v17.3c0,9.85,1.71,17.37,5.14,22.54,3.42,5.17,8.54,7.76,15.34,7.76s11.84-2.39,15.11-7.16c3.27-4.77,4.97-12.08,5.1-21.94v-18.1Z"/>
      <path class="cls-2" d="M1206.2,341.57h12.2v68.34c0,9.24-2.35,16.46-7.06,21.67-4.71,5.21-11.04,7.82-18.99,7.82s-14.54-2.47-19.09-7.42c-4.55-4.95-6.83-11.8-6.83-20.55h12.13c0,5.52,1.21,9.83,3.65,12.93,2.43,3.09,5.81,4.64,10.14,4.64s7.56-1.68,10.08-5.04,3.78-8.06,3.78-14.12v-68.27Z"/>
      <path class="cls-2" d="M1300.09,398.31c0,13.17-2.81,23.31-8.42,30.42-5.61,7.12-13.59,10.67-23.93,10.67s-17.8-3.46-23.56-10.37c-5.77-6.92-8.76-16.69-8.98-29.33v-18.16c0-12.9,2.85-23.01,8.55-30.33,5.7-7.31,13.66-10.97,23.86-10.97s18.08,3.5,23.76,10.51c5.68,7,8.58,17,8.72,29.99v17.57ZM1287.96,381.41c0-10.21-1.67-17.8-5-22.77-3.34-4.97-8.45-7.46-15.34-7.46s-11.72,2.52-15.15,7.56c-3.42,5.04-5.16,12.46-5.2,22.27v17.3c0,9.85,1.71,17.37,5.14,22.54,3.42,5.17,8.54,7.76,15.34,7.76s11.84-2.39,15.11-7.16c3.27-4.77,4.97-12.08,5.1-21.94v-18.1Z"/>
    </g>
    <g>
      <path class="cls-2" d="M448.44,484.71h5.46s0,30.59,0,30.59c0,4.13-1.05,7.37-3.16,9.7-2.11,2.33-4.94,3.5-8.5,3.5-3.66,0-6.51-1.11-8.54-3.32-2.04-2.22-3.06-5.28-3.06-9.2h5.43c0,2.47.54,4.4,1.63,5.79s2.6,2.08,4.54,2.08,3.38-.75,4.51-2.25,1.69-3.61,1.69-6.32v-30.56Z"/>
      <path class="cls-2" d="M481.62,516.6h-14.6s-3.35,11.3-3.35,11.3h-5.58s13.91-43.2,13.91-43.2h4.66s13.95,43.2,13.95,43.2h-5.58s-3.41-11.3-3.41-11.3ZM468.44,511.95h11.78s-5.9-19.64-5.9-19.64l-5.87,19.64Z"/>
      <path class="cls-2" d="M501.12,511v16.91s-5.43,0-5.43,0v-43.2s13.77,0,13.77,0c4.02,0,7.17,1.2,9.47,3.61,2.29,2.4,3.44,5.6,3.44,9.6s-1.09,7.35-3.28,9.6c-2.19,2.24-5.27,3.41-9.24,3.49h-8.72ZM501.12,506.34h8.34c2.41,0,4.26-.72,5.55-2.17,1.29-1.45,1.93-3.52,1.93-6.21s-.66-4.68-1.99-6.24c-1.32-1.56-3.14-2.35-5.46-2.35h-8.37s0,16.97,0,16.97Z"/>
      <path class="cls-2" d="M544.63,516.6h-14.6s-3.35,11.3-3.35,11.3h-5.58s13.91-43.2,13.91-43.2h4.66s13.95,43.2,13.95,43.2h-5.58s-3.41-11.3-3.41-11.3ZM531.45,511.95h11.78s-5.9-19.64-5.9-19.64l-5.87,19.64Z"/>
      <path class="cls-2" d="M586.92,527.91h-5.46s-17.3-33.29-17.3-33.29v33.29s-5.46,0-5.46,0v-43.2s5.46,0,5.46,0l17.36,33.44v-33.44s5.4,0,5.4,0v43.2Z"/>
      <path class="cls-2" d="M601.2,527.91h-5.43s0-43.2,0-43.2h5.43s0,43.2,0,43.2Z"/>
      <path class="cls-2" d="M628.8,516.99c0-2.16-.58-3.81-1.75-4.96-1.17-1.15-3.27-2.26-6.32-3.35-3.05-1.09-5.38-2.23-6.99-3.43-1.61-1.2-2.82-2.56-3.62-4.09-.8-1.53-1.2-3.29-1.2-5.27,0-3.42,1.14-6.24,3.43-8.46,2.29-2.22,5.28-3.32,8.98-3.32,2.53,0,4.79.57,6.76,1.7,1.98,1.13,3.5,2.7,4.57,4.72,1.07,2.02,1.6,4.23,1.6,6.64h-5.46c0-2.67-.64-4.74-1.93-6.2-1.29-1.46-3.14-2.2-5.55-2.2-2.2,0-3.9.61-5.1,1.84s-1.81,2.95-1.81,5.17c0,1.82.65,3.35,1.96,4.58s3.32,2.33,6.05,3.3c4.25,1.41,7.29,3.14,9.12,5.2,1.83,2.06,2.74,4.75,2.75,8.07,0,3.5-1.14,6.3-3.41,8.41-2.27,2.11-5.37,3.16-9.29,3.16-2.51,0-4.83-.55-6.96-1.65-2.13-1.1-3.8-2.64-5.01-4.63-1.22-1.99-1.82-4.27-1.82-6.84h5.46c0,2.67.75,4.75,2.24,6.23,1.49,1.48,3.53,2.22,6.1,2.22,2.39,0,4.19-.61,5.4-1.84s1.81-2.9,1.81-5.01Z"/>
      <path class="cls-2" d="M661.33,507.94h-15.28s0,15.31,0,15.31h17.8s0,4.66,0,4.66h-23.23s0-43.2,0-43.2h22.93s0,4.66,0,4.66h-17.51s0,13.92,0,13.92h15.28s0,4.66,0,4.66Z"/>
      <path class="cls-2" d="M702,516.99c0-2.16-.58-3.81-1.75-4.96-1.17-1.15-3.27-2.26-6.32-3.35-3.05-1.09-5.38-2.23-6.99-3.43-1.61-1.2-2.82-2.56-3.62-4.09-.8-1.53-1.2-3.29-1.2-5.27,0-3.42,1.14-6.24,3.43-8.46,2.29-2.22,5.28-3.32,8.98-3.32,2.53,0,4.79.57,6.76,1.7,1.98,1.13,3.5,2.7,4.57,4.72,1.07,2.02,1.6,4.23,1.6,6.64h-5.46c0-2.67-.64-4.74-1.93-6.2-1.29-1.46-3.14-2.2-5.55-2.2-2.2,0-3.9.61-5.1,1.84s-1.81,2.95-1.81,5.17c0,1.82.65,3.35,1.96,4.58s3.32,2.33,6.05,3.3c4.25,1.41,7.29,3.14,9.12,5.2,1.83,2.06,2.74,4.75,2.75,8.07,0,3.5-1.14,6.3-3.41,8.41-2.27,2.11-5.37,3.16-9.29,3.16-2.51,0-4.83-.55-6.96-1.65-2.13-1.1-3.8-2.64-5.01-4.63-1.22-1.99-1.82-4.27-1.82-6.84h5.46c0,2.67.75,4.75,2.24,6.23,1.49,1.48,3.53,2.22,6.1,2.22,2.39,0,4.19-.61,5.4-1.84s1.81-2.9,1.81-5.01Z"/>
      <path class="cls-2" d="M740.91,514.17c-.24,4.63-1.54,8.17-3.9,10.64s-5.7,3.69-10.01,3.69c-4.33,0-7.77-1.65-10.32-4.94-2.55-3.29-3.83-7.76-3.83-13.4v-7.83c0-5.62,1.31-10.06,3.93-13.32,2.62-3.26,6.19-4.9,10.73-4.9,4.17,0,7.4,1.25,9.69,3.74,2.28,2.49,3.53,6.06,3.72,10.71h-5.49c-.24-3.52-.98-6.03-2.23-7.54-1.25-1.5-3.14-2.26-5.7-2.26-2.95,0-5.21,1.15-6.79,3.46-1.58,2.3-2.37,5.68-2.37,10.13v7.92c0,4.37.74,7.72,2.21,10.06,1.47,2.33,3.62,3.5,6.45,3.5,2.83,0,4.87-.7,6.11-2.11,1.25-1.4,2.02-3.93,2.31-7.57h5.49Z"/>
      <path class="cls-2" d="M775.75,527.91h-5.46s0-19.97,0-19.97h-17.39s0,19.97,0,19.97h-5.43s0-43.2,0-43.2h5.43s0,18.57,0,18.57h17.39s0-18.57,0-18.57h5.46s0,43.2,0,43.2Z"/>
      <path class="cls-2" d="M812.46,510.11c0,5.9-1.26,10.43-3.77,13.62-2.51,3.19-6.08,4.78-10.71,4.78-4.45,0-7.97-1.55-10.55-4.64s-3.92-7.47-4.02-13.13v-8.13c0-5.77,1.28-10.3,3.83-13.57,2.55-3.27,6.11-4.91,10.68-4.91s8.09,1.57,10.64,4.7c2.54,3.14,3.84,7.61,3.9,13.43v7.86ZM807.03,502.54c0-4.57-.75-7.97-2.24-10.19-1.49-2.23-3.78-3.34-6.87-3.34s-5.25,1.13-6.78,3.38c-1.53,2.25-2.31,5.58-2.33,9.97v7.74c0,4.41.77,7.77,2.3,10.09,1.53,2.31,3.82,3.47,6.87,3.47s5.3-1.07,6.76-3.2c1.46-2.14,2.23-5.41,2.29-9.82v-8.1Z"/>
      <path class="cls-2" d="M848.17,510.11c0,5.9-1.26,10.43-3.77,13.62-2.51,3.19-6.08,4.78-10.71,4.78-4.45,0-7.97-1.55-10.55-4.64s-3.92-7.47-4.02-13.13v-8.13c0-5.77,1.28-10.3,3.83-13.57,2.55-3.27,6.11-4.91,10.68-4.91s8.09,1.57,10.64,4.7c2.54,3.14,3.84,7.61,3.9,13.43v7.86ZM842.74,502.54c0-4.57-.75-7.97-2.24-10.19-1.49-2.23-3.78-3.34-6.87-3.34s-5.25,1.13-6.78,3.38-2.31,5.58-2.33,9.97v7.74c0,4.41.77,7.77,2.3,10.09,1.53,2.31,3.82,3.47,6.87,3.47s5.3-1.07,6.76-3.2c1.46-2.14,2.23-5.41,2.29-9.82v-8.1Z"/>
      <path class="cls-2" d="M861.23,523.25h16.94s0,4.66,0,4.66h-22.4s0-43.2,0-43.2h5.46s0,38.54,0,38.54Z"/>
      <path class="cls-2" d="M925.07,510.11c0,5.9-1.26,10.43-3.77,13.62-2.51,3.19-6.08,4.78-10.71,4.78-4.45,0-7.97-1.55-10.55-4.64-2.58-3.1-3.92-7.47-4.02-13.13v-8.13c0-5.77,1.28-10.3,3.83-13.57,2.55-3.27,6.11-4.91,10.68-4.91s8.09,1.57,10.64,4.7c2.54,3.14,3.84,7.61,3.9,13.43v7.86ZM919.64,502.54c0-4.57-.75-7.97-2.24-10.19-1.49-2.23-3.78-3.34-6.87-3.34s-5.25,1.13-6.78,3.38-2.31,5.58-2.33,9.97v7.74c0,4.41.77,7.77,2.3,10.09,1.53,2.31,3.82,3.47,6.87,3.47s5.3-1.07,6.76-3.2c1.46-2.14,2.23-5.41,2.29-9.82v-8.1Z"/>
      <path class="cls-2" d="M952.7,508.83h-14.6s0,19.08,0,19.08h-5.43s0-43.2,0-43.2h22.49s0,4.66,0,4.66h-17.06s0,14.81,0,14.81h14.6s0,4.66,0,4.66Z"/>
      <path class="cls-2" d="M981.21,484.71l11.28,35.25,11.27-35.25h7s0,43.2,0,43.2h-5.43s0-16.82,0-16.82l.5-16.85-11.3,33.67h-4.15s-11.25-33.56-11.25-33.56l.5,16.73v16.82s-5.43,0-5.43,0v-43.2s7,0,7,0Z"/>
      <path class="cls-2" d="M1039.99,516.6h-14.6s-3.35,11.3-3.35,11.3h-5.58s13.91-43.2,13.91-43.2h4.66s13.95,43.2,13.95,43.2h-5.58s-3.41-11.3-3.41-11.3ZM1026.82,511.95h11.78s-5.9-19.64-5.9-19.64l-5.87,19.64Z"/>
      <path class="cls-2" d="M1067.12,510.43h-7.59s0,17.48,0,17.48h-5.46s0-43.2,0-43.2h12.1c4.23,0,7.44,1.1,9.61,3.31,2.18,2.21,3.26,5.43,3.26,9.69,0,2.67-.59,5-1.77,6.99-1.18,1.99-2.84,3.49-5,4.5l8.37,18.36v.36s-5.84,0-5.84,0l-7.68-17.48ZM1059.53,505.77h6.59c2.27,0,4.09-.73,5.44-2.2s2.03-3.43,2.03-5.89c0-5.55-2.51-8.32-7.54-8.32h-6.53s0,16.41,0,16.41Z"/>
      <path class="cls-2" d="M1108.4,489.37h-11.36s0,38.54,0,38.54h-5.43s0-38.54,0-38.54h-11.33s0-4.66,0-4.66h28.13s0,4.66,0,4.66Z"/>
      <path class="cls-2" d="M1119.66,527.91h-5.43s0-43.2,0-43.2h5.43s0,43.2,0,43.2Z"/>
      <path class="cls-2" d="M1149.07,516.6h-14.6s-3.35,11.3-3.35,11.3h-5.58s13.91-43.2,13.91-43.2h4.66s13.95,43.2,13.95,43.2h-5.58s-3.41-11.3-3.41-11.3ZM1135.9,511.95h11.78s-5.9-19.64-5.9-19.64l-5.87,19.64Z"/>
      <path class="cls-2" d="M1168.61,523.25h16.94s0,4.66,0,4.66h-22.4s0-43.2,0-43.2h5.46s0,38.54,0,38.54Z"/>
      <path class="cls-2" d="M1224.49,516.6h-14.6s-3.35,11.3-3.35,11.3h-5.58s13.91-43.2,13.91-43.2h4.66s13.95,43.2,13.95,43.2h-5.58s-3.41-11.3-3.41-11.3ZM1211.32,511.95h11.78s-5.9-19.64-5.9-19.64l-5.87,19.64Z"/>
      <path class="cls-2" d="M1251.62,510.43h-7.59s0,17.48,0,17.48h-5.46s0-43.2,0-43.2h12.1c4.23,0,7.44,1.1,9.61,3.31,2.18,2.21,3.26,5.43,3.26,9.69,0,2.67-.59,5-1.77,6.99-1.18,1.99-2.84,3.49-5,4.5l8.37,18.36v.36s-5.84,0-5.84,0l-7.68-17.48ZM1244.03,505.77h6.59c2.27,0,4.09-.73,5.44-2.2s2.03-3.43,2.03-5.89c0-5.55-2.51-8.32-7.54-8.32h-6.53s0,16.41,0,16.41Z"/>
      <path class="cls-2" d="M1292.9,489.37h-11.36s0,38.54,0,38.54h-5.43s0-38.54,0-38.54h-11.33s0-4.66,0-4.66h28.13s0,4.66,0,4.66Z"/>
    </g>
  </g>
</svg>